#!OML:ASF F:\VICON\USERDATA\INSTALL\rory3\rory3.ASF
:FULLY-SPECIFIED
:DEGREES
1
root -6.128717985818728 17.655116566427413 1.339383743878678 -9.853050300404078 59.15338783481988 -25.508710012503997
lfemur -15.317501977030782 19.742290096473482 5.091869632097228
ltibia 31.334496046996783
lfoot -11.461984357508017 15.381189097515513
ltoes -25.30139132350199
rfemur -33.195889113521886 10.810893094435505 23.893895603817146
rtibia 27.493796374815574
rfoot -7.0834914868862935 11.334492075412793
rtoes 10.203211264150037
lowerback -0.4040463560055141 -2.4205760729644608 -8.32887259422445
upperback 4.339877401756927 -2.9275164077454807 -0.0736994502606585
thorax 5.192727008782333 -1.775886358044693 4.430924285846862
lowerneck -10.671493827910922 12.220193200802514 3.7954269688911015
upperneck 31.16097901626111 20.40279270147159 -7.715907109552235
head 13.566172831620735 8.612202924472111 -0.4605459769560494
lclavicle 1.1054455198178372e-14 -4.850045969048469e-15
lhumerus 77.37839907737559 -75.2785839186169 24.742116020611544
lradius 27.18460909149161
lwrist 20.095996532190085
lhand 13.635870487919163 44.60638247880377
lfingers 7.12502
lthumb -141.43402939060158 250.24898864470754
rclavicle 1.1054455198178372e-14 -4.850045969048469e-15
rhumerus -14.711585495138678 -0.5588113267685255 -97.17507977081712
rradius 63.88530461215494
rwrist -69.32567560778922
rhand -53.88149676005623 -5.4375001510644125
rfingers 7.12502
rthumb -26.30989674051401 -33.632879927749826
2
root -6.092688732569234 17.668615772828172 1.5288830686863721 -9.075840393738403 56.549488830316136 -24.113410187150976
lfemur -13.342003724794186 20.663789573024527 6.517088274885308
ltibia 32.58069426113428
lfoot -9.634545820870644 15.34908910910789
ltoes -32.85948909519808
rfemur -32.194889563601805 11.321592683557853 25.20769380568092
rtibia 27.576796291404463
rfoot -6.774911651696369 13.69649120926147
rtoes 12.994809082598698
lowerback -0.33370846950310007 -3.748214855018566 -9.45955169376413
upperback 4.126627680088588 -4.6456751947051815 -0.7756811982877809
thorax 5.220146953586449 -2.6451250459393796 4.209964718640351
lowerneck -9.614556854839694 13.993292240212883 4.72787436612197
upperneck 29.93358094182948 22.848591776202145 -8.568705945261804
head 13.27127436161327 9.73895200936107 -0.5790969174182872
lclavicle 1.1054456415404341e-14 -4.850045849512831e-15
lhumerus 75.67339964212417 -72.48438474409258 29.88171341078177
lradius 26.4774094303435
lwrist 10.943702329399164
lhand 8.914504975968189 40.41588499109421
lfingers 7.12502
lthumb -145.9040249735998 247.17798881879406
rclavicle 1.1054456415404341e-14 -4.850045849512831e-15
rhumerus -14.133085623585899 -3.7058360548520914 -95.77268070072925
rradius 69.62350232514555
rwrist -63.61447804362544
rhand -57.01469504795634 -6.470989312238601
rfingers 7.12502
rthumb -29.305495038690676 -34.1817794806519
3
root -6.066779269574661 17.667215855127353 1.7531722695365932 -9.456170348065044 54.15098974728599 -23.753310232223768
lfemur -11.302305529356609 21.63908901901497 8.896986008548424
ltibia 34.2123919228324
lfoot -7.530837505462488 13.713089699921237
ltoes -38.07688755698725
rfemur -30.73139022163565 12.07619207645335 26.991091364825273
rtibia 27.52859633984321
rfoot -6.4117118456785445 15.195390659611132
rtoes 16.214206566734482
lowerback 0.11975379878778103 -5.204913518676042 -10.392790950542686
upperback 3.9091979638759353 -6.613113805670392 -1.0393157280999468
thorax 5.113997167264137 -3.634353552710876 4.331474480639191
lowerneck -8.537179940305775 15.790291266675155 4.494515017505103
upperneck 28.29628351045673 25.299190849116766 -9.008125345340959
head 12.621577732369932 10.851391105872196 -0.4189683485521474
lclavicle 1.1054456595472633e-14 -4.8500462320268715e-15
lhumerus 85.41349641590264 -69.0821857491865 22.855516978605365
lradius 26.22950954912382
lwrist 8.172194084916669
lhand 3.8554997849716273 31.439090372869558
lfingers 7.12502
lthumb -150.72202021272403 239.15498927359317
rclavicle 1.1054456595472633e-14 -4.8500462320268715e-15
rhumerus -13.122185848040772 -4.68593565873038 -94.45558157408027
rradius 75.79749986444433
rwrist -59.697379714274874
rhand -61.037192849909054 2.240113617442617
rfingers 7.12502
rthumb -33.13869286102031 -24.73068717889659
4
root -6.017440292185538 17.674215443631446 1.9703814956130032 -8.474990465893583 51.855290624954335 -22.685910365828065
lfemur -9.661566980951294 21.38358916414924 10.432784546033101
ltibia 35.20459050096372
lfoot -6.361628441732977 12.430890162965756
ltoes -36.51098801865095
rfemur -30.174490472034776 12.649391615292032 28.067689891333522
rtibia 27.72739614005851
rfoot -6.173861972712359 17.033389985611823
rtoes 17.65980543704157
lowerback -0.38141339252617446 -6.387622433685538 -11.050990426359903
upperback 3.434898582927299 -8.110422748552647 -1.5767647695684448
thorax 5.150917092944963 -4.362062454243063 3.9615452052196343
lowerneck -7.655712464712934 17.133790538824414 4.365745376943761
upperneck 26.621086138542232 27.063090181816605 -9.560304591473834
head 12.000880952669577 11.684290429416894 -0.4279032686971489
lclavicle 1.1054453141855357e-14 -4.850045969048469e-15
lhumerus 85.15839650039966 -66.36598655161907 27.09151482761325
lradius 26.01340965266715
lwrist 3.858966816983587
lhand 0.13118932523708438 22.105595968493816
lfingers 7.12502
lthumb -154.28401669295653 230.38798977056825
rclavicle 1.1054453141855357e-14 -4.850045969048469e-15
rhumerus -11.663886171834072 -7.775764409930546 -93.25688236892191
rradius 81.26199768652049
rwrist -51.819483074212336
rhand -62.00989231838874 3.0862929306457936
rfingers 7.12502
rthumb -34.06309233586159 -23.68338803195828
5
root -5.982831009505408 17.699113979881734 2.1831807374023264 -6.453630708635558 49.90799136942597 -19.22181079942223
lfemur -7.180239176232417 21.283789220839637 10.092184870380493
ltibia 35.19689051199816
lfoot -3.2519209319013758 11.69079043024027
ltoes -37.944887595903765
rfemur -29.087790960647972 12.868091439339532 27.492790678172106
rtibia 28.61279525027298
rfoot -6.571841760154443 18.83398932532736
rtoes 18.70630461923333
lowerback 0.40426733969522743 -7.363101538803024 -13.443288521160138
upperback 2.942759225263278 -9.452541801000844 -2.331353423772022
thorax 4.682788035280649 -5.0290214474765005 4.427684292193039
lowerneck -7.094354072369693 18.51508979049512 3.9058766605894633
upperneck 25.189888383835896 28.8971894879591 -9.893764136215513
head 11.478883660896429 12.533289739885687 -0.2932034725637702
lclavicle 1.1054455154963431e-14 -4.850045323555273e-15
lhumerus 86.00099622130455 -63.51568739366823 30.335213180499686
lradius 26.442409447113626
lwrist 0.554861909856319
lhand -4.8832319081401945 14.684200417775008
lfingers 7.12502
lthumb -159.09401193998593 223.57799015660606
rclavicle 1.1054455154963431e-14 -4.850045323555273e-15
rhumerus -9.34117668755674 -9.172453845437886 -91.72378338549954
rradius 86.91959543163497
rwrist -45.01808597502061
rhand -63.14769169665144 9.256597922551686
rfingers 7.12502
rthumb -35.142991722362076 -17.265993259150346
